# xmcd
#
# Track frame offsets: 
#        150
#        10553
#        31153
#        43445
#        60276
#        85875
#        101317
#        124379
#        145208
#        165464
#        184065
#        212995
#        232718
#        244033
#        267965
#        286162
#
# Disc length: 4442 seconds
#
# Revision: 0
# Processed by: cddbd v1.5PL3 Copyright (c) Steve Scherf et al.
# Submitted via: ExactAudioCopy v0.95a4
#
DISCID=d0115810
DTITLE=Van Morrison - Sandefjord lørdag
DYEAR=2004
DGENRE=Celtic
TTITLE0=I Will Be There
TTITLE1=All Work And No Play
TTITLE2=All Saints Day
TTITLE3=What's Wrong With This Picture
TTITLE4=Get On With The Show
TTITLE5=Evening In June
TTITLE6=Philosophers Stone
TTITLE7=Goin' Down Geneva > Brand New Cadillac
TTITLE8=Hoochie Coochie Man
TTITLE9=Bright Side Of The Road
TTITLE10=Little Village
TTITLE11=St James Infirmary
TTITLE12=Precious Time
TTITLE13=Cleaning Windows
TTITLE14=Have I Told You Lately
TTITLE15=It's All In The Game > Make It Real One More Time
EXTD=
EXTT0=
EXTT1=
EXTT2=
EXTT3=
EXTT4=
EXTT5=
EXTT6=
EXTT7=
EXTT8=
EXTT9=
EXTT10=
EXTT11=
EXTT12=
EXTT13=
EXTT14=
EXTT15=
PLAYORDER=
